<?xml version="1.0" standalone="no"?>
<!DOCTYPE svg PUBLIC "-//W3C//DTD SVG 20010904//EN"
 "http://www.w3.org/TR/2001/REC-SVG-20010904/DTD/svg10.dtd">
<svg version="1.0" xmlns="http://www.w3.org/2000/svg"
 width="1280.000000pt" height="1280.000000pt" viewBox="0 0 1280.000000 1280.000000"
 preserveAspectRatio="xMidYMid meet">
<metadata>
Created by potrace 1.15, written by Peter Selinger 2001-2017
</metadata>
<g transform="translate(0.000000,1280.000000) scale(0.100000,-0.100000)"
fill="#000000" stroke="none">
<path d="M6025 12789 c-396 -23 -822 -89 -1200 -186 -1353 -345 -2549 -1119
-3427 -2216 -1060 -1326 -1547 -3011 -1357 -4702 189 -1683 1037 -3214 2375
-4287 845 -677 1851 -1128 2919 -1308 1796 -304 3636 174 5055 1311 1824 1463
2707 3770 2320 6066 -439 2606 -2474 4698 -5070 5212 -511 101 -1094 141
-1615 110z m125 -1784 l0 -1275 -117 0 c-322 0 -987 57 -1418 120 -218 32
-452 74 -460 82 -13 13 158 423 280 673 446 909 1017 1492 1620 1655 39 10 76
19 83 19 9 1 12 -260 12 -1274z m680 1228 c561 -186 1106 -760 1524 -1606 129
-263 305 -682 291 -695 -8 -8 -242 -50 -460 -82 -433 -64 -1095 -119 -1422
-120 l-113 0 0 1275 0 1276 38 -7 c20 -3 84 -22 142 -41z m-2089 -265 c-419
-463 -764 -1056 -1036 -1780 -44 -118 -57 -142 -72 -140 -114 19 -565 164
-788 254 -215 87 -585 275 -585 297 0 14 190 192 330 311 495 418 1041 745
1640 982 185 74 579 206 618 207 7 1 -41 -59 -107 -131z m3366 86 c785 -243
1452 -603 2073 -1120 149 -124 360 -320 360 -334 0 -22 -329 -191 -556 -285
-222 -93 -687 -244 -817 -267 -15 -2 -28 22 -71 137 -283 752 -645 1366 -1081
1833 -42 45 -72 82 -66 82 6 0 77 -21 158 -46z m-6094 -1888 c337 -210 824
-412 1332 -551 77 -21 143 -41 147 -45 4 -3 -1 -37 -12 -75 -172 -590 -309
-1388 -365 -2120 -15 -196 -35 -584 -35 -677 l0 -48 -1291 0 -1292 0 7 113
c69 1111 453 2184 1109 3092 78 108 288 375 295 375 2 0 50 -29 105 -64z
m8989 -68 c538 -670 921 -1441 1128 -2267 85 -339 144 -721 166 -1073 l6 -108
-1291 0 -1291 0 0 43 c0 78 -20 480 -30 622 -56 750 -175 1471 -349 2105 -22
80 -37 147 -33 151 4 3 70 23 147 44 518 142 1026 355 1360 569 39 25 72 46
75 46 3 0 53 -60 112 -132z m-6812 -677 c553 -99 1354 -180 1790 -181 52 0
112 -3 133 -6 l37 -7 0 -1288 0 -1289 -1291 0 -1291 0 6 108 c3 59 8 163 11
232 35 779 170 1627 372 2343 29 103 39 126 52 123 9 -3 90 -19 181 -35z
m4653 -88 c201 -709 339 -1586 372 -2353 3 -74 8 -179 11 -232 l6 -98 -1291 0
-1291 0 0 1289 0 1289 31 6 c17 3 77 6 133 6 500 0 1464 106 1987 219 3 0 22
-56 42 -126z m-5763 -3230 c0 -94 20 -482 35 -678 56 -728 190 -1511 361
-2108 14 -48 24 -90 22 -91 -1 -2 -70 -22 -153 -46 -507 -143 -970 -337 -1290
-539 -55 -35 -108 -68 -118 -75 -14 -9 -21 -7 -35 10 -365 448 -567 754 -787
1194 -108 217 -134 275 -219 493 -220 561 -355 1172 -392 1775 l-7 112 1292 0
1291 0 0 -47z m3070 -1242 l0 -1288 -37 -7 c-21 -3 -81 -6 -133 -6 -312 0
-984 -58 -1415 -121 -137 -20 -505 -84 -549 -95 -22 -5 -25 2 -59 123 -201
710 -337 1570 -372 2348 -3 72 -8 176 -11 233 l-6 102 1291 0 1291 0 0 -1289z
m3076 1192 c-3 -54 -8 -159 -11 -233 -33 -766 -170 -1638 -372 -2353 -34 -121
-37 -128 -59 -123 -44 11 -412 75 -549 95 -431 63 -1103 121 -1415 121 -52 0
-112 3 -132 6 l-38 7 0 1288 0 1289 1291 0 1291 0 -6 -97z m3070 -15 c-63
-1026 -398 -2023 -971 -2893 -134 -203 -416 -573 -445 -583 -5 -2 -35 14 -67
36 -324 218 -813 428 -1358 582 -82 24 -152 44 -153 46 -2 1 8 42 21 91 173
601 304 1364 361 2103 15 181 36 590 36 688 l0 42 1291 0 1292 0 -7 -112z
m-6146 -4243 l0 -1276 -37 7 c-119 21 -344 115 -488 204 -181 111 -407 309
-575 505 -278 325 -543 768 -755 1265 -69 162 -146 362 -141 367 6 6 245 49
426 77 436 67 1052 121 1423 125 l147 1 0 -1275z m906 1265 c474 -27 924 -75
1311 -140 217 -37 283 -49 283 -54 0 -7 -95 -250 -130 -331 -353 -828 -795
-1438 -1278 -1762 -164 -110 -410 -219 -559 -248 l-33 -7 0 1276 0 1276 114 0
c63 0 194 -5 292 -10z m-3362 -418 c141 -386 346 -814 547 -1140 163 -264 318
-471 514 -686 127 -139 138 -135 -141 -45 -707 229 -1324 559 -1890 1010 -186
148 -454 390 -454 408 0 10 126 85 265 157 147 76 352 164 545 234 159 57 523
168 555 169 17 1 27 -18 59 -107z m5666 53 c321 -94 568 -186 822 -308 107
-51 328 -174 347 -193 7 -7 -54 -67 -195 -194 -655 -588 -1439 -1024 -2280
-1270 -56 -17 -105 -30 -109 -30 -4 0 35 46 87 102 236 257 409 494 598 818
156 268 351 685 466 997 31 83 54 133 63 133 8 0 98 -25 201 -55z"/>
</g>
</svg>
